<mxfile host="app.diagrams.net" modified="2024-01-04T09:48:03.182Z" agent="Mozilla/5.0 (Windows NT 10.0; Win64; x64) AppleWebKit/537.36 (KHTML, like Gecko) Chrome/120.0.0.0 Safari/537.36" etag="Atu-N-hGKJ2DhnTd_-SW" version="21.7.4" type="device">
  <diagram name="Page-1" id="_pl0q_QKfb4XXbSnyBk4">
    <mxGraphModel dx="1434" dy="772" grid="1" gridSize="10" guides="1" tooltips="1" connect="1" arrows="1" fold="1" page="1" pageScale="1" pageWidth="850" pageHeight="1100" math="0" shadow="0">
      <root>
        <mxCell id="0" />
        <mxCell id="1" parent="0" />
        <mxCell id="bkelO0secW04jX87kT5X-3" value="" style="rounded=0;whiteSpace=wrap;html=1;" vertex="1" parent="1">
          <mxGeometry x="265" y="175" width="1090" height="610" as="geometry" />
        </mxCell>
        <mxCell id="bkelO0secW04jX87kT5X-4" value="" style="rounded=1;whiteSpace=wrap;html=1;" vertex="1" parent="1">
          <mxGeometry x="580" y="315" width="460" height="330" as="geometry" />
        </mxCell>
        <mxCell id="bkelO0secW04jX87kT5X-5" value="" style="rounded=0;whiteSpace=wrap;html=1;" vertex="1" parent="1">
          <mxGeometry x="790" y="430" width="210" height="30" as="geometry" />
        </mxCell>
        <mxCell id="bkelO0secW04jX87kT5X-6" value="" style="rounded=0;whiteSpace=wrap;html=1;" vertex="1" parent="1">
          <mxGeometry x="790" y="490" width="210" height="30" as="geometry" />
        </mxCell>
        <mxCell id="bkelO0secW04jX87kT5X-7" value="Confirm" style="rounded=1;whiteSpace=wrap;html=1;" vertex="1" parent="1">
          <mxGeometry x="895" y="560" width="105" height="40" as="geometry" />
        </mxCell>
        <mxCell id="bkelO0secW04jX87kT5X-8" value="USERNAME" style="text;html=1;strokeColor=none;fillColor=none;align=center;verticalAlign=middle;whiteSpace=wrap;rounded=0;" vertex="1" parent="1">
          <mxGeometry x="650" y="430" width="60" height="30" as="geometry" />
        </mxCell>
        <mxCell id="bkelO0secW04jX87kT5X-9" value="PASSWORD" style="text;html=1;strokeColor=none;fillColor=none;align=center;verticalAlign=middle;whiteSpace=wrap;rounded=0;" vertex="1" parent="1">
          <mxGeometry x="650" y="490" width="60" height="30" as="geometry" />
        </mxCell>
        <mxCell id="bkelO0secW04jX87kT5X-10" value="SIGN-IN / LOGIN" style="text;html=1;strokeColor=none;fillColor=none;align=center;verticalAlign=middle;whiteSpace=wrap;rounded=0;" vertex="1" parent="1">
          <mxGeometry x="745" y="340" width="130" height="30" as="geometry" />
        </mxCell>
      </root>
    </mxGraphModel>
  </diagram>
</mxfile>
